<svg xmlns="http://www.w3.org/2000/svg" version="1.1" xmlns:xlink="http://www.w3.org/1999/xlink" xmlns:svgjs="http://svgjs.com/svgjs" width="850.000000pt" height="850.000000pt"><svg version="1.0" xmlns="http://www.w3.org/2000/svg" width="850.000000pt" height="850.000000pt" viewBox="0 0 850.000000 850.000000" preserveAspectRatio="xMidYMid meet">
<metadata>
Created by potrace 1.14, written by Peter Selinger 2001-2017
</metadata>
<g transform="translate(0.000000,850.000000) scale(0.100000,-0.100000)" fill="#000000" stroke="none">
<path d="M4389 8468 c-5 -10 -3 -6132 2 -6139 3 -5 221 -8 530 -7 l524 3 0
982 c0 541 3 983 7 983 4 0 12 -9 18 -19 5 -11 16 -25 23 -33 7 -7 42 -51 77
-98 36 -47 70 -90 75 -96 6 -6 21 -26 35 -44 32 -42 247 -320 263 -340 18 -22
118 -151 147 -190 29 -38 170 -220 206 -265 64 -80 279 -358 391 -503 68 -90
131 -171 138 -180 21 -25 107 -135 134 -170 l24 -32 608 0 c407 0 609 4 609
11 0 5 -23 38 -51 72 -75 92 -72 88 -218 272 -74 93 -137 172 -140 175 -4 3
-19 23 -36 45 -16 22 -32 42 -35 45 -4 3 -24 28 -45 55 -20 28 -40 52 -44 55
-3 3 -19 23 -36 45 -16 22 -32 42 -35 45 -4 3 -23 27 -43 53 -20 26 -42 54
-49 61 -7 8 -22 26 -33 42 -11 15 -24 32 -30 38 -14 16 -78 96 -118 148 -19
24 -41 53 -50 64 -9 10 -41 51 -72 89 -32 39 -73 90 -93 114 -21 24 -45 57
-55 72 -11 16 -23 29 -27 29 -5 0 -11 8 -14 18 -3 9 -18 31 -34 47 -15 17 -61
73 -101 125 -41 52 -78 97 -81 100 -4 3 -23 26 -42 51 -19 26 -40 53 -46 60
-62 74 -75 102 -54 111 6 3 71 77 122 142 8 10 20 23 25 30 6 6 67 78 135 161
69 82 135 161 146 175 12 14 74 88 139 165 64 77 124 149 133 160 10 11 84
101 167 200 82 99 152 182 155 185 3 3 28 32 55 65 28 33 52 62 55 65 3 3 25
30 50 60 24 30 51 62 60 71 8 10 29 34 46 55 34 42 151 182 190 228 13 15 24
31 24 36 0 4 -265 7 -590 7 l-590 0 -103 -126 c-57 -69 -121 -148 -143 -176
-21 -27 -43 -55 -49 -61 -5 -6 -23 -28 -40 -49 -31 -39 -123 -154 -174 -215
-16 -19 -88 -109 -161 -200 -74 -91 -145 -179 -159 -196 -14 -17 -40 -49 -57
-70 -17 -21 -57 -70 -88 -109 -64 -78 -65 -80 -121 -150 -22 -27 -42 -52 -45
-55 -3 -3 -21 -25 -40 -50 -19 -25 -43 -54 -52 -65 -69 -83 -213 -260 -242
-300 -9 -11 -16 -15 -17 -10 -1 6 -2 702 -3 1547 l-1 1538 -520 523 c-466 469
-532 534 -536 525z"></path>
<path d="M412 4293 l3 -1968 510 -1 c281 -1 515 1 521 3 7 3 10 213 10 703 -1
385 2 700 5 700 5 0 83 -83 178 -189 13 -14 44 -48 70 -76 26 -27 74 -79 106
-115 86 -95 226 -248 260 -285 17 -18 66 -72 110 -121 153 -168 151 -166 166
-151 23 23 203 219 245 266 22 24 53 58 69 76 57 61 204 220 227 246 152 167
193 212 255 278 l72 76 1 -70 c0 -38 1 -638 1 -1333 l0 -1262 515 -515 c283
-283 518 -515 522 -515 6 0 10 6177 3 6215 0 6 -40 -31 -89 -81 -48 -50 -172
-180 -277 -289 -104 -109 -215 -223 -245 -255 -64 -66 -393 -410 -460 -480
-25 -26 -101 -105 -170 -177 -69 -71 -201 -209 -295 -307 -93 -97 -218 -228
-278 -289 l-107 -112 -118 121 c-100 103 -382 396 -532 554 -25 26 -103 108
-175 182 -71 74 -213 222 -315 328 -102 106 -207 217 -235 245 -27 29 -131
137 -230 240 -255 266 -313 325 -319 325 -3 0 -5 -885 -4 -1967z"></path>
</g>
</svg><style>@media (prefers-color-scheme: light) { :root { filter: none; } }
@media (prefers-color-scheme: dark) { :root { filter: invert(100%); } }
</style></svg>