<svg xmlns="http://www.w3.org/2000/svg" version="1.1" xmlns:xlink="http://www.w3.org/1999/xlink" xmlns:svgjs="http://svgjs.com/svgjs" width="64.000000pt" height="64.000000pt"><svg version="1.0" xmlns="http://www.w3.org/2000/svg" width="64.000000pt" height="64.000000pt" viewBox="0 0 64.000000 64.000000" preserveAspectRatio="xMidYMid meet">

<g transform="translate(0.000000,64.000000) scale(0.100000,-0.100000)" fill="#000000" stroke="none">
<path d="M330 407 l0 -227 40 0 39 0 3 70 3 70 53 -70 c53 -69 55 -70 99 -70
51 0 53 -8 -18 80 -55 69 -55 65 2 133 l52 62 -39 3 c-41 4 -45 1 -121 -93
l-32 -40 -1 115 0 116 -40 39 -40 39 0 -227z"></path>
<path d="M30 320 l0 -140 40 0 40 0 0 53 1 52 31 -38 31 -38 33 32 34 33 0
-95 0 -95 40 -39 40 -39 0 229 0 229 -74 -73 -73 -73 -64 71 c-35 39 -67 71
-71 71 -5 0 -8 -63 -8 -140z"></path>
</g>
</svg><style>@media (prefers-color-scheme: light) { :root { filter: none; } }
@media (prefers-color-scheme: dark) { :root { filter: invert(100%); } }
</style></svg>