<svg xmlns="http://www.w3.org/2000/svg" version="1.1" xmlns:xlink="http://www.w3.org/1999/xlink" xmlns:svgjs="http://svgjs.com/svgjs" width="850.000000pt" height="850.000000pt"><svg version="1.0" xmlns="http://www.w3.org/2000/svg" width="850.000000pt" height="850.000000pt" viewBox="0 0 850.000000 850.000000" preserveAspectRatio="xMidYMid meet">

<g transform="translate(0.000000,850.000000) scale(0.100000,-0.100000)" fill="#000000" stroke="none">
<path d="M4392 5395 l3 -3066 520 0 520 0 5 988 c5 937 6 987 22 968 21 -24
119 -150 1087 -1398 119 -153 266 -342 326 -418 l110 -140 604 0 c333 1 606 2
607 4 1 1 -358 452 -798 1001 -439 550 -797 1004 -794 1010 2 6 127 158 278
337 248 296 419 501 1030 1231 109 130 198 239 198 242 0 3 -264 6 -587 5
l-588 0 -60 -76 c-33 -42 -141 -176 -240 -298 -99 -123 -404 -500 -678 -839
-275 -339 -503 -616 -508 -616 -5 0 -9 629 -9 1543 l0 1542 -522 523 c-287
287 -524 522 -525 522 -2 0 -2 -1379 -1 -3065z"></path>
<path d="M420 4293 l0 -1963 515 0 515 0 0 705 c0 388 4 705 8 705 5 0 19 -12
32 -27 13 -16 166 -183 340 -373 173 -189 357 -390 408 -447 52 -57 97 -103
100 -103 4 0 202 214 441 475 239 261 438 472 442 469 5 -3 9 -605 9 -1337 l0
-1332 515 -515 515 -515 0 3110 0 3110 -118 -120 c-129 -132 -1718 -1789
-1770 -1845 l-32 -35 -72 75 c-206 216 -1609 1678 -1770 1845 l-78 80 0 -1962z"></path>
</g>
</svg><style>
<!-- @media (prefers-color-scheme: light) { :root { filter: none; } } -->
@media (prefers-color-scheme: dark) { :root { filter: invert(100%); } }
</style></svg>